<svg width="132" height="131" viewBox="0 0 132 131" fill="none" xmlns="http://www.w3.org/2000/svg">
<g id="face-id-4 1" clip-path="url(#clip0_8853_79764)">
<path id="Vector" d="M127.634 102.344V118.719C127.634 120.89 126.771 122.973 125.236 124.508C123.7 126.044 121.618 126.906 119.446 126.906H103.071" stroke="#004B4E" stroke-width="8" stroke-linecap="round" stroke-linejoin="round"/>
<path id="Vector_2" d="M103.071 4.09375H119.446C121.618 4.09375 123.7 4.95636 125.236 6.49181C126.771 8.02727 127.634 10.1098 127.634 12.2813V28.6563" stroke="#004B4E" stroke-width="8" stroke-linecap="round" stroke-linejoin="round"/>
<path id="Vector_3" d="M4.82129 28.6563V12.2813C4.82129 10.1098 5.6839 8.02727 7.21935 6.49181C8.75481 4.95636 10.8373 4.09375 13.0088 4.09375H29.3838" stroke="#004B4E" stroke-width="8" stroke-linecap="round" stroke-linejoin="round"/>
<path id="Vector_4" d="M29.3838 126.906H13.0088C10.8373 126.906 8.75481 126.044 7.21935 124.508C5.6839 122.973 4.82129 120.89 4.82129 118.719V102.344" stroke="#004B4E" stroke-width="8" stroke-linecap="round" stroke-linejoin="round"/>
<path id="Vector_5" d="M66.2275 71.6406C78.6626 71.6406 88.7432 61.56 88.7432 49.125C88.7432 36.69 78.6626 26.6094 66.2275 26.6094C53.7925 26.6094 43.7119 36.69 43.7119 49.125C43.7119 61.56 53.7925 71.6406 66.2275 71.6406Z" stroke="#004B4E" stroke-width="8" stroke-linecap="round" stroke-linejoin="round"/>
<path id="Vector_6" d="M100.97 104.396C98.4301 97.211 93.7252 90.9904 87.5032 86.5905C81.2812 82.1907 73.8481 79.8281 66.2276 79.8281C58.6072 79.8281 51.1741 82.1907 44.9521 86.5905C38.7301 90.9904 34.0252 97.211 31.4854 104.396" stroke="#004B4E" stroke-width="8" stroke-linecap="round" stroke-linejoin="round"/>
</g>
<defs>
<clipPath id="clip0_8853_79764">
<rect width="131" height="131" fill="white" transform="translate(0.727539)"/>
</clipPath>
</defs>
</svg>
