<svg width="159" height="158" viewBox="0 0 159 158" fill="none" xmlns="http://www.w3.org/2000/svg">
<g id="passkey-local">
<path id="icon-passkey-head" d="M68.7801 79.0011C84.0745 79.0011 96.473 66.6026 96.473 51.3082C96.473 36.0138 84.0745 23.6152 68.7801 23.6152C53.4857 23.6152 41.0872 36.0138 41.0872 51.3082C41.0872 66.6026 53.4857 79.0011 68.7801 79.0011Z" fill="#004B4E"/>
<path id="icon-passkey-key" d="M142.628 79.0012C142.642 75.1434 141.619 71.3529 139.666 68.0255C137.714 64.6982 134.904 61.9563 131.53 60.0864C128.156 58.2164 124.341 57.2869 120.485 57.3952C116.629 57.5035 112.872 58.6454 109.608 60.7017C106.344 62.7581 103.692 65.6533 101.93 69.0849C100.167 72.5165 99.3587 76.3585 99.5886 80.2094C99.8185 84.0603 101.078 87.7788 103.237 90.9762C105.395 94.1737 108.373 96.7329 111.858 98.3862V131.31L121.089 140.541L136.474 125.156L127.243 115.925L136.474 106.694L128.843 99.0632C132.896 97.4993 136.381 94.7465 138.841 91.1661C141.301 87.5858 142.621 83.3452 142.628 79.0012ZM121.089 79.0012C119.872 79.0012 118.682 78.6402 117.67 77.964C116.658 77.2878 115.869 76.3267 115.404 75.2022C114.938 74.0777 114.816 72.8404 115.053 71.6466C115.291 70.4528 115.877 69.3563 116.738 68.4957C117.598 67.635 118.695 67.0489 119.889 66.8114C121.082 66.574 122.32 66.6959 123.444 67.1616C124.569 67.6274 125.53 68.4162 126.206 69.4282C126.882 70.4402 127.243 71.63 127.243 72.8472C127.243 74.4793 126.595 76.0446 125.441 77.1987C124.287 78.3528 122.721 79.0012 121.089 79.0012Z" fill="#004B4E"/>
<path id="icon-passkey-body" d="M93.0268 91.4325C88.3011 89.3255 83.1853 88.2352 78.0111 88.2324H59.5492C49.7563 88.2324 40.3646 92.1226 33.44 99.0472C26.5154 105.972 22.6252 115.364 22.6252 125.156V137.464H102.627V103.556C98.4768 100.368 95.179 96.203 93.0268 91.4325Z" fill="#004B4E"/>
</g>
</svg>
